<?xml version="1.0" encoding="utf-8"?>
<!-- Generator: Adobe Illustrator 20.1.0, SVG Export Plug-In . SVG Version: 6.00 Build 0)  -->
<svg version="1.1" id="Layer_1" xmlns="http://www.w3.org/2000/svg" xmlns:xlink="http://www.w3.org/1999/xlink" x="0px" y="0px"
	 viewBox="0 0 512 512" style="enable-background:new 0 0 512 512;" xml:space="preserve">
<style type="text/css">
	.st0{fill:none;stroke:#B78C30;stroke-width:15;stroke-linecap:round;stroke-linejoin:round;stroke-miterlimit:10;}
</style>
<g>
	<path class="st0" d="M350.4,213.6L498.1,73.1c0,0-6.5-53.8-55.2-59c-44.9-4.7-70.6,22.3-70.6,22.3S114,274.2,34.1,354.1
		c-24.8,24.8-28.8,71.3,0,106.9c39.8,49.2,84.1,40.9,101.6,23.3c9.8-9.8,13.5-45.2-7.4-70.2c-32.8-39.3-62.7-29.7-62.7-29.7
		l50.1-44.6c0,0,9.6,2,26.7,15.7c16.5,13.2,28.4,29.5,28.4,29.5L292.3,269"/>
	<path class="st0" d="M34.1,354.1c0,0,13.9-15.4,32.6-19c29.1-5.7,49,4.7,49,4.7"/>
	<path class="st0" d="M134.3,485.9L495.6,143c0,0,4.6-12.2,0.8-35c-3-17.5-8-23.2-8-23.2"/>
	<path class="st0" d="M180.3,216.8c0,0,53.6-11.4,83.9,13.2c17.9,14.5,34.2,39.8,33.4,70.6s-7.1,36.8-7.1,36.8"/>
	<path class="st0" d="M239,162.1c0,0,60.4-11.2,93.9,23.8c35.2,36.9,22.7,89.8,22.7,89.8"/>
	<polyline class="st0" points="230.1,155.4 191.3,109.8 184,164.6 130.5,167.4 169.7,212.2 	"/>
</g>
</svg>
