<?xml version="1.0" encoding="utf-8"?>
<!-- Generator: Adobe Illustrator 20.1.0, SVG Export Plug-In . SVG Version: 6.00 Build 0)  -->
<svg version="1.1" id="Layer_1" xmlns="http://www.w3.org/2000/svg" xmlns:xlink="http://www.w3.org/1999/xlink" x="0px" y="0px"
	 viewBox="0 0 512 512" style="enable-background:new 0 0 512 512;" xml:space="preserve">
<style type="text/css">
	.st0{fill:none;stroke:#B78C30;stroke-width:15;stroke-linecap:round;stroke-linejoin:round;stroke-miterlimit:10;}
	.st1{fill:none;stroke:#B78C30;stroke-width:15;stroke-linecap:round;stroke-linejoin:round;stroke-dasharray:1.0017,30.0516;}
	.st2{fill:none;stroke:#B78C30;stroke-width:20;stroke-linecap:round;stroke-linejoin:round;stroke-miterlimit:10;}
</style>
<g>
	<circle class="st0" cx="264.1" cy="208.6" r="195.8"/>
	<g>
		<circle class="st1" cx="263.9" cy="209.3" r="163.1"/>
	</g>
</g>
<g>
	<polyline class="st0" points="177.4,417.1 118.4,476.1 104.8,404.8 34.7,392.4 85,342.1 	"/>
	<polyline class="st0" points="157.4,437.1 94.4,500.2 80.8,428.8 10.7,416.5 76.6,350.6 	"/>
</g>
<g>
	<polyline class="st0" points="438.5,353.2 478.4,393.1 407,406.7 394.7,476.8 336.7,418.8 	"/>
	<polyline class="st0" points="438.3,353 501.3,416 430,429.7 417.6,499.7 351.7,433.9 	"/>
</g>
<polyline class="st2" points="216.5,200 256.6,230.3 329.1,146 "/>
<polyline class="st2" points="219.5,248.5 262.3,281.6 340.4,189.7 "/>
</svg>
