<?xml version="1.0" encoding="utf-8"?>
<!-- Generator: Adobe Illustrator 20.1.0, SVG Export Plug-In . SVG Version: 6.00 Build 0)  -->
<svg version="1.1" id="Layer_1" xmlns="http://www.w3.org/2000/svg" xmlns:xlink="http://www.w3.org/1999/xlink" x="0px" y="0px"
	 viewBox="0 0 512 512" style="enable-background:new 0 0 512 512;" xml:space="preserve">
<style type="text/css">
	.st0{fill:none;stroke:#B78C30;stroke-width:15;stroke-linecap:round;stroke-linejoin:round;stroke-miterlimit:10;}
</style>
<polygon class="st0" points="15.4,122.2 256,36.2 499.4,131.2 256,220.2 "/>
<path class="st0" d="M94.1,162.8v119.4c0,0,73.2,69.2,167.6,65.3S425,283.6,425,283.6V170.8"/>
<polyline class="st0" points="256,128.2 371.6,182.1 371.6,412.5 "/>
<line class="st0" x1="257.2" y1="268.5" x2="257.2" y2="336.9"/>
<path class="st0" d="M402.6,420.2c3.9,14.8-1.2,31.1-14.1,41c-12.9,9.8-29.9,10.4-43.1,2.8"/>
<path class="st0" d="M308.3,475.4c-1.1-5-1.3-10.4-0.3-15.7c2.9-16.8,15.6-29.4,31.2-33.1"/>
<path class="st0" d="M94.1,321.8c0,0,73.2,65.2,167.6,61.2S425,323.1,425,323.1"/>
</svg>
