<?xml version="1.0" encoding="utf-8"?>
<!-- Generator: Adobe Illustrator 20.1.0, SVG Export Plug-In . SVG Version: 6.00 Build 0)  -->
<svg version="1.1" id="Layer_1" xmlns="http://www.w3.org/2000/svg" xmlns:xlink="http://www.w3.org/1999/xlink" x="0px" y="0px"
	 viewBox="0 0 512 512" style="enable-background:new 0 0 512 512;" xml:space="preserve">
<style type="text/css">
	.st0{fill:none;stroke:#B78C30;stroke-width:15;stroke-linecap:round;stroke-linejoin:round;stroke-miterlimit:10;}
</style>
<line class="st0" x1="11.6" y1="498.2" x2="499.5" y2="498.2"/>
<rect x="15.9" y="107.9" class="st0" width="75.1" height="368.1"/>
<rect x="91.3" y="11.4" class="st0" width="83.8" height="464.6"/>
<rect x="175.1" y="11.4" class="st0" width="83.8" height="464.6"/>
<rect x="259.2" y="74.2" class="st0" width="83.8" height="401.9"/>
<rect x="394.2" y="140.3" transform="matrix(0.9835 -0.1811 0.1811 0.9835 -48.6565 82.8549)" class="st0" width="70.5" height="335.2"/>
<rect x="121.1" y="70.1" class="st0" width="27.1" height="141.1"/>
<rect x="202.1" y="140.7" class="st0" width="30" height="70.5"/>
<line class="st0" x1="285.3" y1="107.9" x2="324.3" y2="107.9"/>
<line class="st0" x1="282.7" y1="322.9" x2="317.7" y2="322.9"/>
<line class="st0" x1="282.7" y1="349.2" x2="319.9" y2="349.2"/>
<line class="st0" x1="116.5" y1="312.1" x2="151.5" y2="312.1"/>
<line class="st0" x1="116.5" y1="338.4" x2="151.5" y2="338.4"/>
<rect x="287.2" y="220.7" class="st0" width="30" height="70.5"/>
<line class="st0" x1="35.9" y1="140.7" x2="70.9" y2="140.7"/>
<line class="st0" x1="35.9" y1="167" x2="70.9" y2="167"/>
<line class="st0" x1="427" y1="378.3" x2="456.3" y2="371.9"/>
<line class="st0" x1="432.7" y1="404.1" x2="463.8" y2="397.1"/>
<rect x="415.6" y="248.8" transform="matrix(0.9835 -0.1811 0.1811 0.9835 -44.3912 81.8459)" class="st0" width="20.8" height="70.5"/>
</svg>
