<?xml version="1.0" encoding="utf-8"?>
<!-- Generator: Adobe Illustrator 20.1.0, SVG Export Plug-In . SVG Version: 6.00 Build 0)  -->
<svg version="1.1" id="Layer_1" xmlns="http://www.w3.org/2000/svg" xmlns:xlink="http://www.w3.org/1999/xlink" x="0px" y="0px"
	 viewBox="0 0 512 512" style="enable-background:new 0 0 512 512;" xml:space="preserve">
<style type="text/css">
	.st0{fill:#B78C30;}
	.st1{fill:none;stroke:#B78C30;stroke-width:15;stroke-linecap:round;stroke-linejoin:round;stroke-miterlimit:10;}
	.st2{fill:none;stroke:#B78C30;stroke-width:15;stroke-linejoin:round;stroke-miterlimit:10;}
</style>
<g>
	<path class="st0" d="M251.6,16c28,0,55.1,5.5,80.7,16.3c24.7,10.4,46.8,25.4,65.9,44.4s34,41.2,44.4,65.9
		c10.8,25.5,16.3,52.7,16.3,80.7s-5.5,55.1-16.3,80.7c-10.4,24.7-25.4,46.8-44.4,65.9s-41.2,34-65.9,44.4
		c-25.5,10.8-52.7,16.3-80.7,16.3s-55.1-5.5-80.7-16.3c-24.7-10.4-46.8-25.4-65.9-44.4s-34-41.2-44.4-65.9
		c-10.8-25.5-16.3-52.7-16.3-80.7c0-28,5.5-55.1,16.3-80.7C71.1,117.9,86,95.7,105,76.7s41.2-34,65.9-44.4
		C196.5,21.5,223.6,16,251.6,16 M251.6,0C128.3,0,28.4,99.9,28.4,223.2s99.9,223.2,223.2,223.2s223.2-99.9,223.2-223.2
		C474.8,99.9,374.8,0,251.6,0L251.6,0z"/>
</g>
<path class="st1" d="M229.3,49.5c0,0,17.3,21.8,17.8,38.8c0.4,13.8-11,31.8-2.9,36.1c8.1,4.2,31.6-14.7,46.7-31.9
	c12.1-13.8,16.8-33,16.8-33s-15-10.7-36.7-12.5C244.1,44.8,229.3,49.5,229.3,49.5z"/>
<path class="st2" d="M360.3,83.4c0,0-39.1,32.8-32.7,43.4c3.8,6.3,15.4,3.7,16.4,8.2c1.4,6.6-24.1,11.6-33.6,31.9
	c-1.2,2.6-2.2,5.5-4.9,9.8c-6.2,9.8-10.8,10.3-14.7,16.4c-6.2,9.7,1.5,14.8-3.3,28.7c-3.6,10.5-8.6,8.9-15.6,23.7
	c-3.5,7.5-6.7,14.5-4.9,22.9c0.3,1.6,2.1,9.8,9,14.7c2.9,2.1,6,3.1,25.4,4.1c14.3,0.7,16.7,0.3,20.5,2.5c7.3,4.2,10,12.4,11.5,17.2
	c11.2,37,15.6,65.5,15.6,65.5s39.3-28.3,57.3-62.2c10.4-19.7,23.2-53.3,20.7-100.3c-2.4-45.1-20.7-74-30.1-88.4
	C384.4,102.5,360.3,83.4,360.3,83.4z"/>
<g>
	<path class="st0" d="M165.2,79.3L165.2,79.3L165.2,79.3 M159.3,83c3.4,1.6,7.8,3.7,12.3,6.2c7.9,4.3,12.9,7.6,16,10
		c-2.3-0.7-4.7-1.1-7.3-1.1c-10.7,0-22.7,6.3-28.9,10.1c-6,3.7-17,11.2-23,20.9c-6.6,10.6-6.1,25.5,1.2,35.4c4,5.4,9.8,8.4,16.2,8.4
		c3.3,0,6.1-0.8,8.2-1.4c0.8-0.2,1.5-0.4,2-0.5c11.7-2.2,17.2-10.3,20.5-15.2c2.3-3.5,3.3-4.7,5.2-5.6c1.5-0.7,3.3-1.1,5.2-1.1
		c3.1,0,6.3,0.9,8.8,2.5c0.2,0.2,6.1,4,6.3,9.3c0.1,2.8-1.3,5.9-4,8.7c-3.7,3.9-10.6,5.7-27.1,9.7c-2.2,0.5-4.1,1-5.8,1.3
		c-7,1.6-13.1,2.9-19.5,8.6c-9.7,8.6-14.4,28.8-14.4,29c0,0,0,0.1,0,0.1c-4.7-2.3-9.9-4-14.6-4c-8.7,0-15.8,5-18.6,13
		c-2.2,6.4-1.2,15.5,8.2,21.8c3.2,2.1,6.8,3.6,9.9,4.8c1.4,0.6,2.9,1.1,3.7,1.5c2,1,6.9,5.3,9.5,9.1c8.2,11.6,19.1,13.8,27.9,15.5
		c6.4,1.3,12,2.4,18.2,6.9c3.9,2.9,6.3,6.5,6.5,6.9c0.7,1.2,0.7,1.6,1,2.8c0.5,2.4,1.4,6.5,5,11.2c5.8,7.4,13,9.2,20,11
		c3,0.8,6.5,1.6,11,3.1c3.3,1.1,6.7,2.2,8.9,3c0.6,4.2-1.5,14.4-8.4,21.3c-2.3,2.3-3.8,2.9-6.9,4.2c-4.7,1.9-11.1,4.4-17.7,12.4
		c-7.8,9.4-9.4,18.6-10.3,24.1c0,0.2-0.1,0.3-0.1,0.5c-5.9-0.5-14.6-5.4-18.4-11.9c-0.9-1.6-0.9-1.8-1.1-5.6
		c-0.1-4.4-0.3-11.1-3.2-21.2c-3.8-13.4-8.7-20.1-12-24.5c-2.5-3.4-2.8-3.8-3-6.9c-1.2-14.8-3.5-22.8-14.6-34.5
		c-3.5-3.6-8-6.7-13.2-10.2c-15.2-10.2-34-22.9-35.9-53c0-3.3,0.5-43.8,28.1-86.4c12.9-19.8,26.8-33.4,36.2-41.3
		C152.2,88,156.2,85,159.3,83 M158.2,66.1c0,0-32.1,16.7-59.5,58.9c-31.5,48.6-30.5,95.1-30.5,95.1c2.9,48.8,42.9,62.1,53.3,73
		c7.8,8.2,9.5,12.5,10.5,25.3c1.2,14.8,9.4,12.8,15.6,34.4c4.9,17.3,0.3,20.9,5.7,30.3c6.7,11.6,21.4,19.4,32.4,19.4
		c3.3,0,6.2-0.7,8.5-2.2c8-5.1,2.2-15.7,12.3-27.8c8.1-9.7,14.4-6.2,23.7-15.6c12.1-12.2,16.7-33.7,9-42.6
		c-1.8-2.1-6.4-3.6-15.6-6.5c-14.7-4.7-19.8-3.9-23.7-9c-3-3.9-1.2-5.8-4.9-12.3c0,0-3.6-6.3-10.6-11.5c-18.5-13.5-33.5-6-42.7-19
		c-3.7-5.2-10.3-11.3-15-13.8c-5.6-2.9-16.1-5.2-14.4-9.9c0.7-2.1,2.3-2.9,4.4-2.9c5.8,0,14.9,6.6,15.3,7.1c1.5,2.1,2.9,3,4.2,3
		c4.8,0,8.4-11.6,9.8-17.9c0.2-1,4.4-16.3,9.8-21.1c4.4-3.9,8.1-3.9,18.8-6.5c18.3-4.5,27.5-6.7,34.4-13.9c1.5-1.5,8.6-9,8.2-19.6
		c-0.5-12.8-11.5-20.2-13.1-21.3c-5-3.2-11-5-17-5c-4.1,0-8.1,0.8-11.7,2.5c-12,5.7-11.4,17.6-22.1,19.6c-3,0.6-5.4,1.7-7.5,1.7
		c-1.5,0-2.8-0.6-4.1-2.4c-3.4-4.6-4-12.9-0.5-18.6c6.7-10.8,28.4-23.9,39.1-23.9c1.3,0,2.4,0.2,3.3,0.6c3.3,1.4,7.7,2.5,11.8,2.5
		c3.7,0,7.2-0.9,9.4-3.3c4.1-4.5,2.1-12.3,1.6-13.9C202.8,84.8,158.2,66.1,158.2,66.1L158.2,66.1z"/>
</g>
<path class="st1" d="M470.7,113.5c61,121.8,11.7,270-110.1,331s-270,11.7-331-110.1"/>
<line class="st1" x1="256.5" y1="470.7" x2="256.5" y2="497.6"/>
<line class="st1" x1="311.9" y1="504.6" x2="201.1" y2="504.6"/>
</svg>
