<?xml version="1.0" encoding="utf-8"?>
<!-- Generator: Adobe Illustrator 20.1.0, SVG Export Plug-In . SVG Version: 6.00 Build 0)  -->
<svg version="1.1" id="Layer_1" xmlns="http://www.w3.org/2000/svg" xmlns:xlink="http://www.w3.org/1999/xlink" x="0px" y="0px"
	 viewBox="0 0 512 512" style="enable-background:new 0 0 512 512;" xml:space="preserve">
<style type="text/css">
	.st0{fill:none;stroke:#B78C30;stroke-width:15;stroke-linecap:round;stroke-linejoin:round;stroke-miterlimit:10;}
	.st1{fill:none;stroke:#B78C30;stroke-width:15;stroke-linecap:round;stroke-miterlimit:10;}
	.st2{fill:#B78C30;}
</style>
<polygon class="st0" points="315.3,100.4 315.3,9.3 407.2,101.2 "/>
<line class="st1" x1="70.3" y1="439" x2="9" y2="439"/>
<line class="st1" x1="70.3" y1="407.2" x2="9" y2="407.2"/>
<line class="st1" x1="70.3" y1="325.1" x2="9" y2="325.1"/>
<line class="st1" x1="70.3" y1="293.3" x2="9" y2="293.3"/>
<line class="st1" x1="70.3" y1="216.3" x2="9" y2="216.3"/>
<line class="st1" x1="70.3" y1="184.5" x2="9" y2="184.5"/>
<line class="st1" x1="70.3" y1="104.1" x2="9" y2="104.1"/>
<line class="st1" x1="70.3" y1="72.3" x2="9" y2="72.3"/>
<polyline class="st0" points="268.8,355.7 242.8,428.7 317.7,404.6 "/>
<g>
	<polygon class="st0" points="318.5,402.9 290.5,399.9 269.9,379.4 269.6,354 453.6,170 459.9,196.6 478.5,212.3 502.5,218.9 	"/>
	<polyline class="st0" points="453.6,170 479.9,170 502.5,190.8 502.5,218.9 	"/>
</g>
<line class="st0" x1="123.9" y1="158.1" x2="341.3" y2="158.1"/>
<line class="st0" x1="219.2" y1="215.8" x2="341.3" y2="215.8"/>
<line class="st0" x1="123.9" y1="215.8" x2="176.4" y2="215.8"/>
<line class="st0" x1="246" y1="261.2" x2="123.9" y2="261.2"/>
<line class="st0" x1="341.3" y1="261.2" x2="288.8" y2="261.2"/>
<line class="st0" x1="293.4" y1="310.5" x2="123.9" y2="310.5"/>
<line class="st0" x1="251.4" y1="358.3" x2="123.9" y2="358.3"/>
<polygon class="st2" points="400.3,321.1 400.3,494.4 50,494.4 50,18.4 312,16.9 400.3,105.3 400.3,216.4 415.2,202.4 415.2,99.1 
	318.1,2 35.1,3.7 35.1,509.3 415.2,509.3 415.2,306.2 "/>
</svg>
