<?xml version="1.0" encoding="utf-8"?>
<!-- Generator: Adobe Illustrator 20.1.0, SVG Export Plug-In . SVG Version: 6.00 Build 0)  -->
<svg version="1.1" id="Layer_1" xmlns="http://www.w3.org/2000/svg" xmlns:xlink="http://www.w3.org/1999/xlink" x="0px" y="0px"
	 viewBox="0 0 512 512" style="enable-background:new 0 0 512 512;" xml:space="preserve">
<style type="text/css">
	.st0{fill:none;stroke:#B78C30;stroke-width:15;stroke-linecap:round;stroke-linejoin:round;stroke-miterlimit:10;}
</style>
<line class="st0" x1="504" y1="491.8" x2="8.3" y2="491.8"/>
<line class="st0" x1="8.3" y1="453.1" x2="504" y2="453.1"/>
<line class="st0" x1="8.3" y1="415.3" x2="504" y2="415.3"/>
<polyline class="st0" points="148.7,152 148.7,242.3 17,242.3 17,415.3 493.3,415.3 493.3,249.3 355.3,249.3 355.3,152 "/>
<polyline class="st0" points="123.9,161.1 255.2,100.1 380,161.1 "/>
<line class="st0" x1="255.9" y1="12.3" x2="255.9" y2="99.4"/>
<polyline class="st0" points="255.2,64.5 205.6,64.5 205.6,20.3 255.2,20.3 "/>
<rect x="207.8" y="171.2" class="st0" width="27.8" height="51"/>
<rect x="266.1" y="171.7" class="st0" width="27.8" height="51"/>
<rect x="108.3" y="288.5" class="st0" width="27.8" height="51"/>
<rect x="371.2" y="292.1" class="st0" width="27.8" height="51"/>
<rect x="185.4" y="291.1" class="st0" width="130.8" height="124.2"/>
<line class="st0" x1="252" y1="291.4" x2="252" y2="415.3"/>
<line class="st0" x1="239.6" y1="353.2" x2="264.4" y2="353.2"/>
<rect x="54" y="288.5" class="st0" width="27.8" height="51"/>
<rect x="426.6" y="292.1" class="st0" width="27.8" height="51"/>
</svg>
