<?xml version="1.0" encoding="utf-8"?>
<!-- Generator: Adobe Illustrator 20.1.0, SVG Export Plug-In . SVG Version: 6.00 Build 0)  -->
<svg version="1.1" id="Layer_1" xmlns="http://www.w3.org/2000/svg" xmlns:xlink="http://www.w3.org/1999/xlink" x="0px" y="0px"
	 viewBox="0 0 512 512" style="enable-background:new 0 0 512 512;" xml:space="preserve">
<style type="text/css">
	.st0{fill:none;stroke:#B78C30;stroke-width:15;stroke-linecap:round;stroke-linejoin:round;stroke-miterlimit:10;}
	.st1{fill:#B78C30;}
</style>
<rect x="19.6" y="49.7" class="st0" width="478.9" height="293.7"/>
<line class="st0" x1="19.6" y1="21" x2="498.4" y2="21"/>
<g>
	<line class="st0" x1="266" y1="400" x2="266" y2="497.8"/>
	<g>
		<line class="st0" x1="287.1" y1="450.7" x2="329.9" y2="493.5"/>
		<line class="st0" x1="245.4" y1="450.7" x2="202.6" y2="493.5"/>
	</g>
</g>
<g>
	<g>
		<path class="st1" d="M65.6,210.2l8.2-1.2l35-100.2h23.7L167.3,209l8.2,1.2v13.8h-39.2v-13.8l8-1.4l-5.1-15.8h-37.3l-5.1,15.8
			l8,1.4v13.8H65.6V210.2z M107.3,176h26.4l-13-40.6h-0.5L107.3,176z"/>
	</g>
	<g>
		<path class="st1" d="M266.3,172.9c13.6,0,24.1,2.6,31.7,7.9c7.6,5.3,11.4,13.2,11.4,23.7c0,5.3-1.4,10.1-4.2,14.3
			c-2.8,4.2-6.9,7.3-12.3,9.5c6.9,1.5,12.1,4.6,15.5,9.5c3.5,4.9,5.2,10.5,5.2,16.9c0,11-3.6,19.4-10.9,25
			c-7.3,5.7-17.6,8.5-30.9,8.5h-56.6v-13.8l12.3-2.4v-82.7l-12.3-2.4v-13.9h12.3H266.3z M250.5,221.1h16.6c6.2,0,10.9-1.3,14.2-3.8
			c3.3-2.5,5-6.2,5-11.1c0-5.3-1.7-9.3-5-11.8c-3.4-2.5-8.3-3.8-15-3.8h-15.8L250.5,221.1L250.5,221.1z M250.5,237.1v33.2h21.3
			c6.1,0,10.8-1.3,14-4c3.2-2.7,4.8-6.6,4.8-11.8c0-5.6-1.4-10-4.1-12.9c-2.7-3-7.1-4.5-13-4.5H250.5z"/>
	</g>
	<g>
		<path class="st1" d="M439.9,147.7h-17.2l-2.4-15.3c-2.3-2.3-5.1-4.1-8.6-5.4c-3.5-1.3-7.5-2-12.2-2c-10,0-17.7,3.6-23.1,10.9
			c-5.4,7.3-8.1,16.8-8.1,28.5v4c0,11.7,2.7,21.2,8.1,28.6c5.4,7.3,13,11,22.8,11c4.5,0,8.7-0.7,12.5-2c3.8-1.3,6.7-3.1,8.7-5.4
			l2.4-15.3h17.2v22.8c-4.6,5.4-10.6,9.7-17.8,12.9c-7.2,3.2-15.3,4.8-24.2,4.8c-15.5,0-28.1-5.4-38-16.1
			c-9.9-10.7-14.8-24.4-14.8-41.2v-3.9c0-16.7,4.9-30.5,14.7-41.2c9.8-10.8,22.5-16.1,38.1-16.1c8.9,0,17,1.6,24.1,4.9
			c7.2,3.2,13.1,7.5,17.8,12.9L439.9,147.7L439.9,147.7z"/>
	</g>
</g>
<line class="st0" x1="19.6" y1="371.8" x2="498.4" y2="371.8"/>
</svg>
