<?xml version="1.0" encoding="utf-8"?>
<!-- Generator: Adobe Illustrator 20.1.0, SVG Export Plug-In . SVG Version: 6.00 Build 0)  -->
<svg version="1.1" id="Layer_1" xmlns="http://www.w3.org/2000/svg" xmlns:xlink="http://www.w3.org/1999/xlink" x="0px" y="0px"
	 viewBox="0 0 512 512" style="enable-background:new 0 0 512 512;" xml:space="preserve">
<style type="text/css">
	.st0{fill:none;stroke:#FFFFFF;stroke-width:15;stroke-linecap:round;stroke-linejoin:round;stroke-miterlimit:10;}
</style>
<polygon class="st0" points="15.402,122.187 256,36.187 499.402,131.187 256,220.187 "/>
<path class="st0" d="M94.148,162.828v119.426c0,0,73.233,69.161,167.586,65.252s163.293-63.949,163.293-63.949V170.755"/>
<polyline class="st0" points="256,128.187 371.572,182.074 371.572,412.503 "/>
<line class="st0" x1="257.247" y1="268.473" x2="257.247" y2="336.866"/>
<path class="st0" d="M402.641,420.219c3.858,14.791-1.215,31.114-14.134,40.957c-12.873,9.808-29.882,10.396-43.098,2.836"/>
<path class="st0" d="M308.321,475.419c-1.093-5.03-1.254-10.35-0.323-15.733c2.903-16.798,15.606-29.447,31.226-33.088"/>
<path class="st0" d="M94.148,321.788c0,0,73.233,65.159,167.586,61.249s163.293-59.946,163.293-59.946"/>
</svg>
